# File created by Blade
# Date/Time:  Wed Jan 21 19:19:18 2015
# Frame Rate: 120.000 fps
#------------------------------------------------------
:FULLY-SPECIFIED
:DEGREES
774
root -0.968736 14.423283 -3.281976 53.655288 -44.458947 19.770313
RightUpLeg -182.536172 -19.701602 35.876470
RightLeg 99.460602 -0.000000 -0.000000
RightFoot 5.289362 26.490355 34.330020
RightToeBase 31.869690 -0.000000 -0.000000
LeftUpLeg -24.280781 26.776946 16.712696
LeftLeg 15.520120 -0.000000 -0.000000
LeftFoot -35.020707 29.999062 -13.338483
LeftToeBase 13.411436 -0.000000 -0.000000
Spine -32.039382 15.443372 22.538160
RightShoulder -10.183415 31.111799 -22.513867
RightArm 9.112401 -44.314541 56.744670
RightForeArm -14.386705 0.000000 6.720577
RightHand 54.178461 0.000000 -45.034060
RightHandThumb1 -24.326973 -0.000000 -32.862282
LeftShoulder -19.186682 -25.368528 72.658040
LeftArm 73.595221 -41.660550 -14.482694
LeftForeArm 17.306422 -0.000000 13.906841
LeftHand -18.127826 -0.000000 8.741100
LeftHandThumb1 -26.253704 0.000000 33.147579
Head -42.644847 15.317565 49.144789
775
root -0.971855 14.428057 -3.278657 53.470476 -44.334450 19.758385
RightUpLeg -182.424989 -19.874944 35.965982
RightLeg 99.467850 -0.000000 -0.000000
RightFoot 5.336583 26.561782 34.307985
RightToeBase 31.991055 -0.000000 -0.000000
LeftUpLeg -24.153932 26.853906 16.819657
LeftLeg 15.527387 -0.000000 -0.000000
LeftFoot -35.024654 29.847315 -13.232957
LeftToeBase 13.469799 -0.000000 -0.000000
Spine -32.077952 15.453500 22.555019
RightShoulder -10.099880 31.109971 -22.216649
RightArm 9.316200 -44.566651 56.420980
RightForeArm -14.185633 -0.000000 6.044050
RightHand 54.446553 -0.000000 -45.629398
RightHandThumb1 -24.326973 -0.000000 -32.862282
LeftShoulder -19.205745 -25.490980 72.845951
LeftArm 73.660613 -41.446251 -14.696207
LeftForeArm 17.628511 -0.000000 13.994103
LeftHand -18.260551 0.000000 8.791367
LeftHandThumb1 -26.253704 0.000000 33.147579
Head -42.299640 15.153014 49.454620
776
root -0.968553 14.434872 -3.275368 53.266784 -44.215522 19.812224
RightUpLeg -182.356054 -20.067898 36.007668
RightLeg 99.499307 -0.000000 -0.000000
RightFoot 5.332957 26.453474 34.368563
RightToeBase 31.992573 -0.000000 -0.000000
LeftUpLeg -24.079959 26.846491 16.878628
LeftLeg 15.557880 -0.000000 -0.000000
LeftFoot -35.019157 29.796332 -13.062399
LeftToeBase 13.559054 -0.000000 -0.000000
Spine -32.126420 15.452683 22.548708
RightShoulder -10.020232 31.019014 -21.957542
RightArm 9.581704 -44.387715 56.137890
RightForeArm -14.337396 0.000000 5.343026
RightHand 54.904885 0.000000 -46.055492
RightHandThumb1 -24.326973 -0.000000 -32.862282
LeftShoulder -19.230623 -25.623357 72.977691
LeftArm 73.621231 -41.271841 -14.787765
LeftForeArm 17.636693 -0.000000 14.135593
LeftHand -18.336111 -0.000000 8.801203
LeftHandThumb1 -26.253704 0.000000 33.147579
Head -42.039990 14.904559 49.686344
777
root -0.964733 14.442164 -3.274182 53.066257 -44.110838 19.892200
RightUpLeg -182.285515 -20.281455 36.007515
RightLeg 99.489093 -0.000000 -0.000000
RightFoot 5.336533 26.396747 34.456394
RightToeBase 32.080885 -0.000000 -0.000000
LeftUpLeg -24.020685 26.813920 16.913501
LeftLeg 15.568106 -0.000000 -0.000000
LeftFoot -35.005783 29.780245 -12.939804
LeftToeBase 13.608715 -0.000000 -0.000000
Spine -32.187558 15.491092 22.489805
RightShoulder -9.981800 31.304523 -21.805385
RightArm 9.248061 -44.302900 56.268379
RightForeArm -14.620554 -0.000000 4.718572
RightHand 55.311587 -0.000000 -46.717222
RightHandThumb1 -24.326973 -0.000000 -32.862282
LeftShoulder -19.288299 -25.816565 73.126792
LeftArm 73.692484 -41.099321 -15.078097
LeftForeArm 17.824549 -0.000000 14.256039
LeftHand -18.298963 -0.000000 8.703040
LeftHandThumb1 -26.253704 0.000000 33.147579
Head -41.875286 14.674114 49.827160
778
root -0.957415 14.450595 -3.272449 52.885993 -44.007689 19.967328
RightUpLeg -182.222280 -20.482697 36.020863
RightLeg 99.465230 -0.000000 -0.000000
RightFoot 5.354875 26.402316 34.488586
RightToeBase 32.115711 -0.000000 -0.000000
LeftUpLeg -23.983508 26.651457 16.985634
LeftLeg 15.638405 -0.000000 -0.000000
LeftFoot -35.049954 29.833972 -12.882252
LeftToeBase 13.633755 -0.000000 -0.000000
Spine -32.230088 15.491431 22.480209
RightShoulder -9.924737 31.411088 -21.591734
RightArm 9.321385 -44.159267 56.130001
RightForeArm -14.849496 -0.000000 3.996658
RightHand 55.813592 -0.000000 -47.415161
RightHandThumb1 -24.326973 -0.000000 -32.862282
LeftShoulder -19.362510 -25.964404 73.252786
LeftArm 73.605059 -40.916329 -15.138002
LeftForeArm 17.972204 -0.000000 14.366168
LeftHand -18.352427 -0.000000 8.706957
LeftHandThumb1 -26.253704 0.000000 33.147579
Head -41.757292 14.464106 49.899819
779
root -0.950917 14.456413 -3.270458 52.734157 -43.919051 20.041626
RightUpLeg -182.190544 -20.648644 36.031127
RightLeg 99.442849 -0.000000 -0.000000
RightFoot 5.438621 26.356166 34.600307
RightToeBase 32.200014 -0.000000 -0.000000
LeftUpLeg -23.950991 26.547201 17.024878
LeftLeg 15.663194 -0.000000 -0.000000
LeftFoot -35.122035 29.830025 -12.837085
LeftToeBase 13.692835 -0.000000 -0.000000
Spine -32.313265 15.520208 22.427657
RightShoulder -9.827701 31.447754 -21.334018
RightArm 9.385568 -44.028204 55.946900
RightForeArm -14.927443 -0.000000 3.343196
RightHand 56.299363 -0.000000 -48.160497
RightHandThumb1 -24.326973 -0.000000 -32.862282
LeftShoulder -19.385092 -26.177334 73.389126
LeftArm 73.336097 -40.701946 -15.014234
LeftForeArm 17.929916 -0.000000 14.492368
LeftHand -18.310245 -0.000000 8.773281
LeftHandThumb1 -26.253704 0.000000 33.147579
Head -41.653620 14.156518 50.079990
780
root -0.943414 14.464457 -3.268254 52.577075 -43.845747 20.118349
RightUpLeg -182.131204 -20.821659 36.027241
RightLeg 99.380824 -0.000000 -0.000000
RightFoot 5.535977 26.404454 34.582486
RightToeBase 32.226534 -0.000000 -0.000000
LeftUpLeg -23.907150 26.449457 17.048933
LeftLeg 15.669844 -0.000000 -0.000000
LeftFoot -35.130631 29.842819 -12.747788
LeftToeBase 13.709544 -0.000000 -0.000000
Spine -32.373897 15.585358 22.363516
RightShoulder -9.762726 31.500244 -21.115729
RightArm 9.372187 -43.790909 55.801564
RightForeArm -15.255404 -0.000000 2.788901
RightHand 56.842243 -0.000000 -48.636875
RightHandThumb1 -24.326973 -0.000000 -32.862282
LeftShoulder -19.431887 -26.403257 73.495394
LeftArm 73.216190 -40.521073 -15.076350
LeftForeArm 17.960692 -0.000000 14.584537
LeftHand -18.375304 0.000000 8.795497
LeftHandThumb1 -26.253704 0.000000 33.147579
Head -41.652841 13.900088 50.127602
781
root -0.933555 14.474016 -3.267215 52.443046 -43.771852 20.170706
RightUpLeg -182.070138 -20.943123 36.028743
RightLeg 99.357133 -0.000000 -0.000000
RightFoot 5.518123 26.293630 34.400143
RightToeBase 32.150440 -0.000000 -0.000000
LeftUpLeg -23.861754 26.358789 17.088240
LeftLeg 15.675633 -0.000000 -0.000000
LeftFoot -35.197985 29.827773 -12.721005
LeftToeBase 13.739611 -0.000000 -0.000000
Spine -32.405858 15.645358 22.352336
RightShoulder -9.681682 31.829675 -21.008495
RightArm 8.984445 -43.694993 55.951182
RightForeArm -15.380540 -0.000000 2.284194
RightHand 57.400546 0.000000 -49.238466
RightHandThumb1 -24.326973 -0.000000 -32.862282
LeftShoulder -19.528139 -26.520554 73.580508
LeftArm 73.229023 -40.410527 -15.304597
LeftForeArm 18.189035 -0.000000 14.602799
LeftHand -18.425095 -0.000000 8.934073
LeftHandThumb1 -26.253704 0.000000 33.147579
Head -41.715643 13.675175 50.109608
782
root -0.923723 14.482460 -3.265124 52.299721 -43.711778 20.216234
RightUpLeg -181.973878 -21.081402 36.004698
RightLeg 99.304596 -0.000000 -0.000000
RightFoot 5.526262 26.196269 34.184910
RightToeBase 32.336485 -0.000000 -0.000000
LeftUpLeg -23.789221 26.303468 17.120997
LeftLeg 15.661907 -0.000000 -0.000000
LeftFoot -35.261034 29.760171 -12.682126
LeftToeBase 13.798066 -0.000000 -0.000000
Spine -32.402548 15.696026 22.357487
RightShoulder -9.609706 31.937800 -20.878610
RightArm 8.941817 -43.528106 55.886159
RightForeArm -15.789015 -0.000000 1.755656
RightHand 57.769666 -0.000000 -49.816780
RightHandThumb1 -24.326973 -0.000000 -32.862282
LeftShoulder -19.592366 -26.682967 73.634135
LeftArm 72.958888 -40.239873 -15.139382
LeftForeArm 18.051835 -0.000000 14.631896
LeftHand -18.455573 0.000000 9.177943
LeftHandThumb1 -26.253704 0.000000 33.147579
Head -41.831168 13.447439 50.078159
783
root -0.918108 14.486828 -3.264814 52.193777 -43.663858 20.274948
RightUpLeg -181.950135 -21.164899 35.986767
RightLeg 99.279823 -0.000000 -0.000000
RightFoot 5.472806 26.113679 33.768232
RightToeBase 31.984185 -0.000000 -0.000000
LeftUpLeg -23.739293 26.261696 17.134681
LeftLeg 15.619216 -0.000000 -0.000000
LeftFoot -35.338234 29.607689 -12.734276
LeftToeBase 13.853279 -0.000000 -0.000000
Spine -32.460309 15.764761 22.315709
RightShoulder -9.524110 31.967579 -20.744746
RightArm 8.897843 -43.047348 55.870688
RightForeArm -16.294226 0.000000 1.229067
RightHand 58.269736 -0.000000 -50.647495
RightHandThumb1 -24.326973 -0.000000 -32.862282
LeftShoulder -19.652786 -26.847025 73.691830
LeftArm 72.840904 -40.103934 -15.198149
LeftForeArm 18.144641 0.000000 14.638995
LeftHand -18.544415 0.000000 9.279772
LeftHandThumb1 -26.253704 0.000000 33.147579
Head -41.981949 13.276458 50.076089
784
root -0.909811 14.492158 -3.265260 52.102146 -43.622567 20.336851
RightUpLeg -181.919941 -21.249640 35.947213
RightLeg 99.238306 -0.000000 -0.000000
RightFoot 5.415070 26.017157 33.429263
RightToeBase 32.047222 -0.000000 -0.000000
LeftUpLeg -23.708634 26.206367 17.139093
LeftLeg 15.579132 -0.000000 -0.000000
LeftFoot -35.326696 29.608869 -12.649609
LeftToeBase 13.866458 -0.000000 -0.000000
Spine -32.522086 15.831309 22.269278
RightShoulder -9.469306 32.034279 -20.623645
RightArm 8.904577 -43.325025 55.721019
RightForeArm -16.044620 -0.000000 0.849765
RightHand 58.478661 0.000000 -51.360252
RightHandThumb1 -24.326973 -0.000000 -32.862282
LeftShoulder -19.715897 -26.983041 73.763221
LeftArm 72.680612 -39.981767 -15.201041
LeftForeArm 18.131059 -0.000000 14.599286
LeftHand -18.515062 -0.000000 9.391617
LeftHandThumb1 -26.253704 0.000000 33.147579
Head -42.096052 13.151039 50.041075
785
root -0.900466 14.497326 -3.264877 51.990694 -43.601399 20.437775
RightUpLeg -181.893538 -21.348636 35.878556
RightLeg 99.156580 -0.000000 -0.000000
RightFoot 5.389269 25.975511 33.145143
RightToeBase 32.229024 -0.000000 -0.000000
LeftUpLeg -23.694847 26.157099 17.097806
LeftLeg 15.547118 -0.000000 -0.000000
LeftFoot -35.360791 29.518574 -12.646341
LeftToeBase 13.857577 -0.000000 -0.000000
Spine -32.576300 15.854411 22.222276
RightShoulder -9.373910 31.997450 -20.487647
RightArm 9.027211 -43.144760 55.560039
RightForeArm -16.153405 0.000000 0.400569
RightHand 58.887871 0.000000 -52.326531
RightHandThumb1 -24.326973 -0.000000 -32.862282
LeftShoulder -19.721404 -27.079523 73.778885
LeftArm 72.514903 -39.944080 -15.221633
LeftForeArm 18.160173 0.000000 14.568482
LeftHand -18.468438 -0.000000 9.361451
LeftHandThumb1 -26.253704 0.000000 33.147579
Head -42.220732 13.075272 49.972188
786
root -0.890600 14.503871 -3.264527 51.882135 -43.570360 20.520870
RightUpLeg -181.855359 -21.433380 35.830971
RightLeg 99.085047 -0.000000 -0.000000
RightFoot 5.290245 25.909053 32.787554
RightToeBase 32.476207 -0.000000 -0.000000
LeftUpLeg -23.686320 26.127127 17.070058
LeftLeg 15.538141 -0.000000 -0.000000
LeftFoot -35.380314 29.432001 -12.621066
LeftToeBase 13.880721 -0.000000 -0.000000
Spine -32.603774 15.870246 22.209136
RightShoulder -9.282534 32.004472 -20.380642
RightArm 9.048500 -42.805705 55.489468
RightForeArm -16.347812 -0.000000 0.069908
RightHand 59.310228 0.000000 -52.621323
RightHandThumb1 -24.326973 -0.000000 -32.862282
LeftShoulder -19.740949 -27.146971 73.779244
LeftArm 72.296865 -39.916369 -15.155776
LeftForeArm 18.053021 -0.000000 14.568769
LeftHand -18.485086 -0.000000 9.366261
LeftHandThumb1 -26.253704 0.000000 33.147579
Head -42.347735 13.011806 49.966532
